<?xml version="1.0" encoding="UTF-8"?>
<svg xmlns="http://www.w3.org/2000/svg" width="240" height="64" viewBox="0 0 240 64" role="img" aria-labelledby="title desc">
  <title id="title">Blog</title>
  <desc id="desc">ehko.dev</desc>
  <rect x=".75" y=".75" width="238.5" height="62.5" rx="11" fill="#100d14" stroke="#2d1a42" stroke-width="1.5"/>
  <path d="M12 .75h216" stroke="#ffa4fa" stroke-opacity=".22" stroke-linecap="round"/>
  <rect x="15" y="11" width="42" height="42" rx="9" fill="#5d427d" opacity=".14"/>
  <rect x="15" y="11" width="42" height="42" rx="9" fill="none" stroke="#2d1a42"/>
  <path fill="#0098ff" transform="translate(22 18) scale(1.17)" d="M23.15 2.587 18.21.21a1.494 1.494 0 0 0-1.705.29l-9.46 8.63-4.12-3.128a.999.999 0 0 0-1.276.057L.327 7.261A1 1 0 0 0 .326 8.74L3.899 12 .326 15.26a1 1 0 0 0 .001 1.479L1.65 17.94a.999.999 0 0 0 1.276.057l4.12-3.129 9.46 8.63a1.492 1.492 0 0 0 1.704.291l4.942-2.377A1.5 1.5 0 0 0 24 20.06V3.939a1.5 1.5 0 0 0-.85-1.352zM18.005 17.448 10.83 12l7.175-5.448v10.896z"/>
  <text x="67" y="28" fill="#f7e7ec" font-family="&apos;JetBrains Mono&apos;, &apos;Cascadia Mono&apos;, &apos;Fira Code&apos;, Consolas, monospace" font-size="15" font-weight="700">Blog</text>
  <text x="67" y="45" fill="#a887bc" font-family="&apos;JetBrains Mono&apos;, &apos;Cascadia Mono&apos;, &apos;Fira Code&apos;, Consolas, monospace" font-size="11">ehko.dev</text>
  <path d="m217 27 5 5-5 5" fill="none" stroke="#a887bc" stroke-width="1.7" stroke-linecap="round" stroke-linejoin="round"/>
</svg>
